HIERARCHY
ROOT Hips
{
	OFFSET 0.0000 0.0000 0.0000
	CHANNELS 6 Xposition Yposition Zposition Zrotation Xrotation Yrotation
	JOINT Spine1
	{
		OFFSET -0.0137 5.0038 -0.0537
		CHANNELS 3 Zrotation Xrotation Yrotation
		JOINT Spine2
		{
			OFFSET -0.0000 7.1253 -0.0298
			CHANNELS 3 Zrotation Xrotation Yrotation
			JOINT Chest
			{
				OFFSET -0.0000 7.5501 -0.8160
				CHANNELS 3 Zrotation Xrotation Yrotation
				JOINT Neck1
				{
					OFFSET -0.1817 26.3113 -0.5533
					CHANNELS 3 Zrotation Xrotation Yrotation
					JOINT Neck2
					{
						OFFSET -0.0000 7.7094 2.3026
						CHANNELS 3 Zrotation Xrotation Yrotation
						JOINT Head
						{
							OFFSET -0.0000 6.1289 1.9537
							CHANNELS 3 Zrotation Xrotation Yrotation
							JOINT Jaw
							{
								OFFSET 0.0026 0.4756 3.0949
								CHANNELS 3 Zrotation Xrotation Yrotation
								End Site
								{
									OFFSET 0.0 1.0 0.0
								}
							}
							JOINT LeftEye
							{
								OFFSET 3.2064 5.3802 7.5869
								CHANNELS 3 Zrotation Xrotation Yrotation
								End Site
								{
									OFFSET 0.0 1.0 0.0
								}
							}
							JOINT RightEye
							{
								OFFSET -3.2224 5.3619 7.5582
								CHANNELS 3 Zrotation Xrotation Yrotation
								End Site
								{
									OFFSET 0.0 1.0 0.0
								}
							}
						}
					}
				}
				JOINT LeftShoulder
				{
					OFFSET 1.6217 23.2372 5.1134
					CHANNELS 3 Zrotation Xrotation Yrotation
					JOINT LeftArm
					{
						OFFSET 14.9198 0.0000 -5.5023
						CHANNELS 3 Zrotation Xrotation Yrotation
						JOINT LeftForeArm
						{
							OFFSET 28.7393 0.0000 -0.0026
							CHANNELS 3 Zrotation Xrotation Yrotation
							JOINT LeftHand
							{
								OFFSET 27.0940 -0.0000 0.0026
								CHANNELS 3 Zrotation Xrotation Yrotation
								JOINT LeftHandThumbEnd
								{
									OFFSET 12.2686 -3.2202 4.8331
									CHANNELS 3 Zrotation Xrotation Yrotation
									End Site
									{
										OFFSET 0.0 1.0 0.0
									}
								}
								JOINT LeftHandMiddleEnd
								{
									OFFSET 19.0120 -0.3129 -0.0340
									CHANNELS 3 Zrotation Xrotation Yrotation
									End Site
									{
										OFFSET 0.0 1.0 0.0
									}
								}
							}
						}
					}
				}
				JOINT RightShoulder
				{
					OFFSET -1.3801 23.1803 5.2142
					CHANNELS 3 Zrotation Xrotation Yrotation
					JOINT RightArm
					{
						OFFSET -15.0372 0.0000 -5.5456
						CHANNELS 3 Zrotation Xrotation Yrotation
						JOINT RightForeArm
						{
							OFFSET -28.7366 0.0000 -0.0026
							CHANNELS 3 Zrotation Xrotation Yrotation
							JOINT RightHand
							{
								OFFSET -27.1336 -0.0000 0.0026
								CHANNELS 3 Zrotation Xrotation Yrotation
								JOINT RightHandThumbEnd
								{
									OFFSET -12.2642 -3.2115 4.8040
									CHANNELS 3 Zrotation Xrotation Yrotation
									End Site
									{
										OFFSET 0.0 1.0 0.0
									}
								}
								JOINT RightHandMiddleEnd
								{
									OFFSET -19.0006 -0.3066 -0.0316
									CHANNELS 3 Zrotation Xrotation Yrotation
									End Site
									{
										OFFSET 0.0 1.0 0.0
									}
								}
							}
						}
					}
				}
			}
		}
	}
	JOINT LeftLeg
	{
		OFFSET 10.0432 -8.4345 2.5957
		CHANNELS 3 Zrotation Xrotation Yrotation
		JOINT LeftShin
		{
			OFFSET -0.0000 -43.2218 -0.8029
			CHANNELS 3 Zrotation Xrotation Yrotation
			JOINT LeftFoot
			{
				OFFSET 0.0000 -42.1551 -3.4815
				CHANNELS 3 Zrotation Xrotation Yrotation
				JOINT LeftToeBase
				{
					OFFSET 0.0000 -5.0595 13.2315
					CHANNELS 3 Zrotation Xrotation Yrotation
					End Site
					{
						OFFSET 0.0 1.0 0.0
					}
				}
			}
		}
	}
	JOINT RightLeg
	{
		OFFSET -10.0473 -8.2953 2.6203
		CHANNELS 3 Zrotation Xrotation Yrotation
		JOINT RightShin
		{
			OFFSET 0.0000 -43.3622 -0.8056
			CHANNELS 3 Zrotation Xrotation Yrotation
			JOINT RightFoot
			{
				OFFSET 0.0000 -42.1174 -3.4784
				CHANNELS 3 Zrotation Xrotation Yrotation
				JOINT RightToeBase
				{
					OFFSET -0.0000 -5.0796 13.2842
					CHANNELS 3 Zrotation Xrotation Yrotation
					End Site
					{
						OFFSET 0.0 1.0 0.0
					}
				}
			}
		}
	}
}
MOTION
Frames: 12
Frame Time: 0.033333
-3.1432 91.0172 5.0826 3.8365 3.4832 0.0823 0.2784 1.3634 -0.7326 -0.1389 -4.2858 -1.9574 1.2841 20.4850 -3.6005 14.4063 17.1426 -1.5743 -2.1776 -4.0426 -6.0319 3.1432 -11.2334 -9.5461 -0.0044 -0.0540 0.0449 0.7411 -10.4741 -3.8166 -0.7272 -10.5413 3.8875 -18.0768 19.2042 -12.8560 -43.6467 9.9948 -28.1766 0.8423 -0.5754 -98.2279 25.7874 3.2812 24.1488 -15.3617 11.7053 16.7799 -60.4108 1.7232 2.2637 9.3166 15.0590 10.5822 45.8028 -4.9708 25.7143 0.0409 0.0360 82.6094 -11.0695 8.7650 -3.9198 14.8908 7.4247 -16.4630 50.0285 -3.2326 -5.4375 17.7225 -8.4147 7.1197 -0.2822 22.7940 -0.7357 -25.7445 -13.2426 5.5571 1.6356 -1.9087 -1.9645 -15.2660 -40.1972 -21.1187 0.6494 43.8261 0.9240 12.0831 -9.3454 4.5043 -1.4055 -0.5691 0.9648
-3.1828 91.0308 5.3134 3.8067 3.5477 -0.3275 0.3577 1.4855 -0.8167 -0.0732 -4.2926 -2.0906 1.5057 20.5373 -3.7985 14.5960 16.8172 -1.5142 -2.1705 -4.0611 -6.0300 2.9653 -11.3006 -9.2622 -0.0072 -0.0775 0.0394 0.7382 -10.4948 -3.8240 -0.7290 -10.5602 3.8839 -17.8609 19.2910 -13.0566 -43.8635 9.5483 -28.0681 0.7906 -0.7098 -97.5034 25.7650 3.2791 23.2686 -15.2647 11.6144 16.6565 -60.4140 1.6633 2.1243 9.3580 15.0287 10.3771 46.0231 -5.3425 25.4097 0.3251 -0.0577 83.0783 -10.5217 9.1740 -3.7716 14.8134 7.4925 -16.4499 50.0382 -3.1468 -5.3177 17.6942 -8.1312 7.0901 -0.2905 22.8098 -0.7587 -25.8304 -13.3880 6.1392 1.6364 -1.8582 -1.9720 -15.2272 -40.1891 -20.7658 0.6291 43.9703 0.9075 12.0432 -9.4494 4.4172 -1.4152 -0.5480 0.9466
-3.1989 91.0314 5.4377 3.7721 3.7280 -0.7740 0.4500 1.6770 -0.9110 -0.0001 -4.2522 -2.2914 1.7907 20.5927 -3.9407 14.7441 16.4958 -1.4640 -2.1828 -4.0970 -6.0046 2.7279 -11.3543 -8.9318 -0.0098 -0.0867 0.0462 0.7344 -10.5283 -3.8192 -0.7296 -10.5864 3.8918 -17.4837 19.3138 -13.3660 -44.0799 9.0869 -28.0557 0.7911 -0.7067 -96.7300 25.8270 3.0370 22.4382 -15.1915 11.6130 16.6549 -60.3815 1.6608 2.0945 9.3483 14.9368 10.2117 46.2109 -5.7188 25.1506 0.5494 -0.1335 83.5602 -10.1271 9.4459 -3.6758 14.7652 7.5062 -16.3703 49.9934 -3.0914 -5.2694 17.6268 -8.1366 7.0814 -0.2734 23.0230 -0.7543 -25.8106 -13.4546 6.6739 1.6425 -1.8165 -1.9849 -15.0806 -40.3764 -20.4605 0.6409 44.0687 0.9350 11.9421 -9.3939 4.3204 -1.4189 -0.4429 0.9407
-3.1796 91.0480 5.4552 3.6897 4.0000 -1.3316 0.5668 1.9237 -1.0046 0.0805 -4.1945 -2.4808 2.1437 20.7088 -4.0628 14.7808 16.2480 -1.4224 -2.1769 -4.1228 -5.8916 2.4647 -11.4871 -8.5211 -0.0114 -0.0928 0.0552 0.7322 -10.5523 -3.8100 -0.7287 -10.6023 3.8984 -16.9978 19.3506 -13.7371 -44.1921 8.5457 -28.1796 0.8404 -0.6776 -95.9579 26.0293 2.7997 21.7857 -15.1273 11.6076 16.6436 -60.3573 1.6617 2.0980 9.2353 14.8444 10.0999 46.3246 -6.1074 25.0201 0.6393 -0.2107 84.0424 -9.7057 9.7433 -3.6094 14.7270 7.5014 -16.2968 49.9489 -3.0636 -5.2497 17.5514 -8.3569 7.1333 -0.2538 23.3727 -0.7536 -25.7725 -13.4619 7.1898 1.6456 -1.7755 -1.9968 -14.7913 -40.6711 -20.2114 0.6319 44.0012 0.9353 11.8222 -9.1696 4.3142 -1.4189 -0.3762 0.9253
-3.1003 91.0839 5.3833 3.5746 4.3576 -1.9824 0.7142 2.2321 -1.0755 0.1740 -4.0999 -2.6793 2.5183 20.8554 -4.1707 14.7456 16.0471 -1.4038 -2.1254 -4.1336 -5.6774 2.1715 -11.6667 -8.0562 -0.0082 -0.0956 0.0560 0.7313 -10.5553 -3.8078 -0.7212 -10.6006 3.8968 -16.3782 19.3902 -14.1522 -44.1743 7.9163 -28.3880 0.8646 -0.6832 -95.2391 26.3957 2.4935 21.2012 -15.0439 11.5945 16.6159 -60.2946 1.6769 2.1100 9.0040 14.7358 10.0163 46.3340 -6.4966 25.0951 0.6511 -0.2537 84.5086 -9.1808 10.0864 -3.5922 14.6977 7.4984 -16.2405 49.8758 -3.0556 -5.2200 17.4731 -8.7591 7.2175 -0.2352 23.8405 -0.7520 -25.7433 -13.4407 7.7260 1.6477 -1.7101 -2.0047 -14.3967 -41.0627 -19.9760 0.6053 43.7719 0.9076 11.6828 -8.7850 4.3538 -1.4206 -0.3005 0.9066
-2.9963 91.1213 5.2220 3.4516 4.7789 -2.6820 0.8706 2.5802 -1.1457 0.2657 -3.9801 -2.8670 2.8719 21.0411 -4.2654 14.6206 15.9311 -1.3826 -2.0558 -4.1285 -5.3493 1.8661 -11.8437 -7.5581 -0.0031 -0.0972 0.0530 0.7326 -10.5530 -3.8107 -0.7102 -10.5978 3.8897 -15.6695 19.4197 -14.5638 -44.0093 7.3013 -28.5915 0.8774 -0.7280 -94.7447 26.8736 2.0701 20.7123 -14.9653 11.5813 16.5942 -60.2589 1.6919 2.1381 8.6975 14.6145 9.9828 46.1550 -6.8448 25.3546 0.5979 -0.3128 84.9854 -8.5773 10.4918 -3.6178 14.7399 7.4954 -16.2106 49.8866 -3.0664 -5.2131 17.3793 -9.3349 7.3319 -0.2262 24.4346 -0.7383 -25.6707 -13.4498 8.1945 1.6488 -1.5770 -2.0179 -13.9178 -41.5521 -19.7956 0.5822 43.4538 0.8808 11.5346 -8.2914 4.4368 -1.4212 -0.2179 0.8914
-2.8221 91.1521 4.9837 3.3322 5.2692 -3.4322 1.0219 2.9375 -1.1915 0.3537 -3.8295 -3.0466 3.2061 21.2340 -4.3382 14.4239 15.9140 -1.3907 -1.9741 -4.1219 -4.9676 1.5307 -11.9828 -7.0217 0.0030 -0.0994 0.0467 0.7369 -10.5485 -3.8179 -0.7017 -10.5939 3.8831 -14.9544 19.4451 -14.9715 -43.7144 6.7911 -28.7769 0.9162 -0.7852 -94.4989 27.3762 1.5215 20.3041 -14.9356 11.5465 16.5559 -60.2219 1.7085 2.1500 8.3585 14.4971 9.9753 45.7839 -7.1838 25.7003 0.5904 -0.2948 85.4576 -7.9676 10.8099 -3.6446 14.8102 7.4904 -16.2059 49.9527 -3.0599 -5.2179 17.2789 -10.0587 7.4832 -0.2257 25.1310 -0.7149 -25.6293 -13.4795 8.6281 1.6522 -1.4583 -2.0241 -13.4107 -42.1451 -19.6438 0.5564 43.0607 0.8490 11.3990 -7.6898 4.5735 -1.4215 -0.1866 0.8768
-2.6357 91.1927 4.7130 3.2138 5.8188 -4.1802 1.1722 3.2763 -1.2271 0.4388 -3.6823 -3.2015 3.5066 21.4452 -4.3940 14.1698 15.9749 -1.3769 -1.9003 -4.1187 -4.6271 1.1408 -12.0497 -6.4816 0.0090 -0.0977 0.0358 0.7422 -10.5537 -3.8316 -0.6953 -10.6024 3.8744 -14.2472 19.4492 -15.3403 -43.3665 6.3577 -28.9011 0.8866 -0.8811 -94.4588 27.9035 0.8284 19.9098 -14.9124 11.5363 16.5503 -60.2229 1.7263 2.1708 7.9735 14.3901 9.9922 45.2471 -7.5544 26.0762 0.5999 -0.2954 85.8240 -7.4195 11.0095 -3.5917 14.9174 7.4875 -16.2324 50.0387 -3.0568 -5.2372 17.1560 -10.8984 7.5939 -0.2275 25.9012 -0.6910 -25.6012 -13.5188 9.0967 1.6559 -1.3419 -2.0370 -12.8450 -42.8370 -19.5614 0.5308 42.6609 0.8179 11.2378 -7.0461 4.7287 -1.4188 -0.1770 0.8557
-2.4210 91.2151 4.4200 3.0962 6.3930 -4.8900 1.3086 3.5670 -1.2693 0.5036 -3.5352 -3.2940 3.7907 21.6508 -4.4657 13.8235 16.0867 -1.3612 -1.8082 -4.1101 -4.3587 0.7428 -12.0377 -5.9980 0.0180 -0.0972 0.0184 0.7483 -10.5613 -3.8538 -0.6831 -10.6125 3.8590 -13.6397 19.3859 -15.6441 -43.0454 6.1035 -29.0459 0.8662 -0.9333 -94.5915 28.4588 0.2054 19.6355 -14.9235 11.5224 16.5556 -60.2246 1.7460 2.2034 7.6114 14.3019 10.0016 44.5440 -7.9423 26.5035 0.5822 -0.2934 85.9988 -7.0600 11.0559 -3.4508 15.0515 7.4725 -16.2701 50.1463 -3.0901 -5.2573 17.0226 -11.7527 7.6692 -0.2181 26.6165 -0.6593 -25.6054 -13.5691 9.5452 1.6577 -1.2207 -2.0491 -12.2842 -43.5650 -19.5088 0.5272 42.2653 0.8083 11.0740 -6.3997 4.8871 -1.4136 -0.1811 0.8385
-2.1858 91.2474 4.1833 3.0022 6.9436 -5.5236 1.4098 3.8058 -1.3065 0.5545 -3.4039 -3.3572 4.0207 21.8205 -4.5180 13.4649 16.2435 -1.3482 -1.7096 -4.0942 -4.1647 0.3977 -11.9574 -5.6270 0.0261 -0.1007 0.0059 0.7562 -10.5667 -3.8679 -0.6748 -10.6162 3.8460 -13.1557 19.3102 -15.8591 -42.8122 5.8800 -29.2150 0.8123 -0.9637 -94.8147 28.9713 -0.2877 19.4700 -14.9364 11.5102 16.5591 -60.2172 1.7500 2.2091 7.3107 14.2185 10.0098 43.7736 -8.3158 26.9070 0.5356 -0.2726 85.9686 -6.9997 10.8882 -3.2426 15.1404 7.4760 -16.3071 50.2202 -3.0892 -5.2723 16.8943 -12.5129 7.7380 -0.2155 27.1706 -0.6297 -25.6089 -13.5691 9.9549 1.6611 -1.1514 -2.0640 -11.7899 -44.2420 -19.4444 0.5222 41.8528 0.8034 10.9787 -5.7777 5.0042 -1.4061 -0.1667 0.8299
-1.9864 91.3232 3.9640 2.9126 7.4624 -6.0869 1.4842 4.0054 -1.3242 0.5926 -3.3083 -3.4212 4.1776 21.9562 -4.5328 13.1108 16.3768 -1.3239 -1.6638 -4.0838 -4.0270 0.1662 -11.7921 -5.4049 0.0363 -0.1068 -0.0085 0.7657 -10.5726 -3.8829 -0.6635 -10.6221 3.8287 -12.7768 19.2215 -15.9951 -42.6866 5.6104 -29.4083 0.7301 -0.9515 -95.0721 29.4168 -0.6691 19.3573 -14.9795 11.4772 16.5579 -60.2406 1.7277 2.1921 7.0883 14.1539 10.0317 43.0547 -8.7640 27.1293 0.5554 -0.2883 85.7528 -7.2100 10.5685 -2.9837 15.1970 7.4638 -16.3343 50.2645 -3.0988 -5.2844 16.7660 -13.1950 7.8149 -0.2121 27.5800 -0.6100 -25.5718 -13.5364 10.3059 1.6616 -1.1234 -2.0702 -11.3073 -44.8124 -19.4278 0.5181 41.3979 0.7989 10.9145 -5.1982 5.1051 -1.3999 -0.1367 0.8339
-1.8310 91.3975 3.7796 2.8467 7.9466 -6.4902 1.5370 4.1579 -1.3485 0.6058 -3.2293 -3.4369 4.2846 22.0333 -4.5537 12.8214 16.4839 -1.3052 -1.6251 -4.0780 -3.9863 0.0308 -11.6142 -5.2839 0.0441 -0.1136 -0.0210 0.7723 -10.5780 -3.8983 -0.6543 -10.6275 3.8161 -12.4726 19.1277 -16.0890 -42.6774 5.2813 -29.6816 0.6518 -0.9139 -95.3080 29.8483 -0.9754 19.2282 -15.0191 11.4509 16.5641 -60.2634 1.7163 2.1613 6.9036 14.1042 10.0378 42.4843 -9.1985 27.1735 0.5620 -0.3100 85.4207 -7.6358 10.1354 -2.7073 15.2259 7.4434 -16.3276 50.2823 -3.1041 -5.2691 16.6465 -13.7974 7.8223 -0.2096 27.8492 -0.5804 -25.5051 -13.4427 10.5493 1.6620 -1.1679 -2.0838 -10.8847 -45.2935 -19.4540 0.5047 40.9413 0.7738 10.8894 -4.6808 5.1485 -1.3942 -0.1407 0.8350
